<svg width="0" height="0" class="hidden">
  <symbol xmlns="http://www.w3.org/2000/svg" viewBox="0 0 64 64" id="code-window-1">
    <title>Code Window</title>
    <desc>A line styled icon from Orion Icon Library.</desc>
    <path data-name="layer1"
    fill="none" stroke="#202020" stroke-linecap="round" stroke-linejoin="round"
    stroke-width="2" d="M2 8h60v12H2zm0 12v36h60V20"></path>
    <path data-name="layer2" fill="none" stroke="#202020" stroke-linecap="round"
    stroke-linejoin="round" stroke-width="2" d="M38 30l7 8-7 8M26 30l-7 8 7 8"></path>
    <circle data-name="layer1" cx="8" cy="14" r="1" fill="none" stroke="#202020"
    stroke-linecap="round" stroke-linejoin="round" stroke-width="2"></circle>
    <circle data-name="layer1" cx="15" cy="14" r="1" fill="none"
    stroke="#202020" stroke-linecap="round" stroke-linejoin="round" stroke-width="2"></circle>
    <circle data-name="layer1" cx="22" cy="14" r="1" fill="none"
    stroke="#202020" stroke-linecap="round" stroke-linejoin="round" stroke-width="2"></circle>
  </symbol>
  <symbol xmlns="http://www.w3.org/2000/svg" viewBox="0 0 64 64" id="upload-1">
    <title>Upload</title>
    <desc>A line styled icon from Orion Icon Library.</desc>
    <path data-name="layer2"
    fill="none" stroke="#202020" stroke-linecap="round" stroke-linejoin="round"
    stroke-width="2" d="M42 36L32 25.8 22 36m10-10.2V60"></path>
    <path data-name="layer1" fill="none" stroke="#202020" stroke-linecap="round"
    stroke-linejoin="round" stroke-width="2" d="M6 4h52v12H6zm0 12v28h18m16 0h18V16"></path>
    <circle data-name="layer1" cx="12" cy="10" r="1" fill="none" stroke="#202020"
    stroke-linecap="round" stroke-linejoin="round" stroke-width="2"></circle>
    <circle data-name="layer1" cx="19" cy="10" r="1" fill="none"
    stroke="#202020" stroke-linecap="round" stroke-linejoin="round" stroke-width="2"></circle>
    <circle data-name="layer1" cx="26" cy="10" r="1" fill="none"
    stroke="#202020" stroke-linecap="round" stroke-linejoin="round" stroke-width="2"></circle>
  </symbol>
  <symbol xmlns="http://www.w3.org/2000/svg" viewBox="0 0 64 64" id="code-1">
    <title>Code</title>
    <desc>A line styled icon from Orion Icon Library.</desc>
    <path data-name="layer1"
    fill="none" stroke="#202020" stroke-linecap="round" stroke-linejoin="round"
    stroke-width="2" d="M2 20v36h60V20M2 8h60v12H2z"></path>
    <path data-name="layer2" fill="none" stroke="#202020" stroke-linecap="round"
    stroke-linejoin="round" stroke-width="2" d="M14 28l7 8-7 8m16-8h12"></path>
    <circle data-name="layer1" cx="8" cy="14" r="1" fill="none" stroke="#202020"
    stroke-linecap="round" stroke-linejoin="round" stroke-width="2"></circle>
    <circle data-name="layer1" cx="15" cy="14" r="1" fill="none"
    stroke="#202020" stroke-linecap="round" stroke-linejoin="round" stroke-width="2"></circle>
    <circle data-name="layer1" cx="22" cy="14" r="1" fill="none"
    stroke="#202020" stroke-linecap="round" stroke-linejoin="round" stroke-width="2"></circle>
  </symbol>
  <symbol xmlns="http://www.w3.org/2000/svg" viewBox="0 0 64 64" id="html5-1">
    <title>Html5</title>
    <desc>A line styled icon from Orion Icon Library.</desc>
    <path data-name="layer2"
    fill="none" stroke="#202020" stroke-linecap="round" stroke-linejoin="round"
    stroke-width="2" d="M6 2h52l-4 54-22 6-22-6L6 2z"></path>
    <path data-name="layer1" fill="none" stroke="#202020" stroke-linecap="round"
    stroke-linejoin="round" stroke-width="2" d="M46 16H18l1 14h25.9L44 44l-12 4-11.7-4-.6-5.8"></path>
  </symbol>
  <symbol xmlns="http://www.w3.org/2000/svg" viewBox="0 0 64 64" id="css3-1">
    <title>Css3</title>
    <desc>A line styled icon from Orion Icon Library.</desc>
    <path data-name="layer2"
    fill="none" stroke="#202020" stroke-linecap="round" stroke-linejoin="round"
    stroke-width="2" d="M6 2h52l-4 54-22 6-22-6L6 2z"></path>
    <path data-name="layer1" fill="none" stroke="#202020" stroke-linecap="round"
    stroke-linejoin="round" stroke-width="2" d="M19.7 38.2l.6 5.8L32 48l12-4 .9-14H19l27-14H18"></path>
  </symbol>
  <symbol xmlns="http://www.w3.org/2000/svg" viewBox="0 0 64 64" id="css3-2">
    <title>CSS3</title>
    <desc>A line styled icon from Orion Icon Library.</desc>
    <path data-name="layer1"
    d="M10.828 6.217l-1.775 9.125a.5.5 0 0 0 .491.6h39.751a.5.5 0 0 1 .49.6l-1.11 5.469a.5.5 0 0 1-.49.4H8.037a.5.5 0 0 0-.491.4l-1.774 9.125a.5.5 0 0 0 .491.6h39.755a.5.5 0 0 1 .491.6l-2.078 10.639a.5.5 0 0 1-.334.379l-16.054 5.29a.5.5 0 0 1-.334-.007l-13.786-5.226a.5.5 0 0 1-.314-.56l.748-3.964a.5.5 0 0 0-.491-.593h-9.02a.5.5 0 0 0-.49.4L2.084 50.679a.5.5 0 0 0 .311.566l23.156 8.878a.5.5 0 0 0 .337.007l26.836-8.945a.5.5 0 0 0 .332-.377l8.825-44.4a.5.5 0 0 0-.49-.6H11.318a.5.5 0 0 0-.49.409z"
    fill="none" stroke="#202020" stroke-linecap="round" stroke-miterlimit="10"
    stroke-width="2" stroke-linejoin="round"></path>
  </symbol>
</svg>